<mxfile host="app.diagrams.net" modified="2021-03-09T17:56:54.026Z" agent="5.0 (Windows NT 10.0; Win64; x64) AppleWebKit/537.36 (KHTML, like Gecko) Chrome/89.0.4389.72 Safari/537.36 Edg/89.0.774.45" etag="UBC1n5I29VANtevPBySO" version="14.4.6" type="github">
  <diagram id="IyqJfg2l3HKBQ_KnVfjA" name="Page-1">
    <mxGraphModel dx="2272" dy="794" grid="1" gridSize="10" guides="1" tooltips="1" connect="1" arrows="1" fold="1" page="1" pageScale="1" pageWidth="850" pageHeight="1100" math="0" shadow="0">
      <root>
        <mxCell id="0" />
        <mxCell id="1" parent="0" />
        <mxCell id="uirbHqGQv4FEbiW8RKk9-1" value="lawncare companyÂ " style="shape=table;startSize=30;container=1;collapsible=1;childLayout=tableLayout;fixedRows=1;rowLines=0;fontStyle=1;align=center;resizeLast=1;" vertex="1" parent="1">
          <mxGeometry x="310" y="20" width="180" height="150" as="geometry" />
        </mxCell>
        <mxCell id="uirbHqGQv4FEbiW8RKk9-2" value="" style="shape=partialRectangle;collapsible=0;dropTarget=0;pointerEvents=0;fillColor=none;top=0;left=0;bottom=1;right=0;points=[[0,0.5],[1,0.5]];portConstraint=eastwest;" vertex="1" parent="uirbHqGQv4FEbiW8RKk9-1">
          <mxGeometry y="30" width="180" height="30" as="geometry" />
        </mxCell>
        <mxCell id="uirbHqGQv4FEbiW8RKk9-3" value="PK" style="shape=partialRectangle;connectable=0;fillColor=none;top=0;left=0;bottom=0;right=0;fontStyle=1;overflow=hidden;" vertex="1" parent="uirbHqGQv4FEbiW8RKk9-2">
          <mxGeometry width="30" height="30" as="geometry" />
        </mxCell>
        <mxCell id="uirbHqGQv4FEbiW8RKk9-4" value="UniqueID" style="shape=partialRectangle;connectable=0;fillColor=none;top=0;left=0;bottom=0;right=0;align=left;spacingLeft=6;fontStyle=5;overflow=hidden;" vertex="1" parent="uirbHqGQv4FEbiW8RKk9-2">
          <mxGeometry x="30" width="150" height="30" as="geometry" />
        </mxCell>
        <mxCell id="uirbHqGQv4FEbiW8RKk9-5" value="" style="shape=partialRectangle;collapsible=0;dropTarget=0;pointerEvents=0;fillColor=none;top=0;left=0;bottom=0;right=0;points=[[0,0.5],[1,0.5]];portConstraint=eastwest;" vertex="1" parent="uirbHqGQv4FEbiW8RKk9-1">
          <mxGeometry y="60" width="180" height="20" as="geometry" />
        </mxCell>
        <mxCell id="uirbHqGQv4FEbiW8RKk9-6" value="" style="shape=partialRectangle;connectable=0;fillColor=none;top=0;left=0;bottom=0;right=0;editable=1;overflow=hidden;" vertex="1" parent="uirbHqGQv4FEbiW8RKk9-5">
          <mxGeometry width="30" height="20" as="geometry" />
        </mxCell>
        <mxCell id="uirbHqGQv4FEbiW8RKk9-7" value="Row 1" style="shape=partialRectangle;connectable=0;fillColor=none;top=0;left=0;bottom=0;right=0;align=left;spacingLeft=6;overflow=hidden;" vertex="1" parent="uirbHqGQv4FEbiW8RKk9-5">
          <mxGeometry x="30" width="150" height="20" as="geometry" />
        </mxCell>
        <mxCell id="uirbHqGQv4FEbiW8RKk9-8" value="" style="shape=partialRectangle;collapsible=0;dropTarget=0;pointerEvents=0;fillColor=none;top=0;left=0;bottom=0;right=0;points=[[0,0.5],[1,0.5]];portConstraint=eastwest;" vertex="1" parent="uirbHqGQv4FEbiW8RKk9-1">
          <mxGeometry y="80" width="180" height="30" as="geometry" />
        </mxCell>
        <mxCell id="uirbHqGQv4FEbiW8RKk9-9" value="" style="shape=partialRectangle;connectable=0;fillColor=none;top=0;left=0;bottom=0;right=0;editable=1;overflow=hidden;" vertex="1" parent="uirbHqGQv4FEbiW8RKk9-8">
          <mxGeometry width="30" height="30" as="geometry" />
        </mxCell>
        <mxCell id="uirbHqGQv4FEbiW8RKk9-10" value="Row 2" style="shape=partialRectangle;connectable=0;fillColor=none;top=0;left=0;bottom=0;right=0;align=left;spacingLeft=6;overflow=hidden;" vertex="1" parent="uirbHqGQv4FEbiW8RKk9-8">
          <mxGeometry x="30" width="150" height="30" as="geometry" />
        </mxCell>
        <mxCell id="uirbHqGQv4FEbiW8RKk9-11" value="" style="shape=partialRectangle;collapsible=0;dropTarget=0;pointerEvents=0;fillColor=none;top=0;left=0;bottom=0;right=0;points=[[0,0.5],[1,0.5]];portConstraint=eastwest;" vertex="1" parent="uirbHqGQv4FEbiW8RKk9-1">
          <mxGeometry y="110" width="180" height="30" as="geometry" />
        </mxCell>
        <mxCell id="uirbHqGQv4FEbiW8RKk9-12" value="" style="shape=partialRectangle;connectable=0;fillColor=none;top=0;left=0;bottom=0;right=0;editable=1;overflow=hidden;" vertex="1" parent="uirbHqGQv4FEbiW8RKk9-11">
          <mxGeometry width="30" height="30" as="geometry" />
        </mxCell>
        <mxCell id="uirbHqGQv4FEbiW8RKk9-13" value="Row 3" style="shape=partialRectangle;connectable=0;fillColor=none;top=0;left=0;bottom=0;right=0;align=left;spacingLeft=6;overflow=hidden;" vertex="1" parent="uirbHqGQv4FEbiW8RKk9-11">
          <mxGeometry x="30" width="150" height="30" as="geometry" />
        </mxCell>
        <mxCell id="uirbHqGQv4FEbiW8RKk9-14" value="equipment" style="shape=table;startSize=30;container=1;collapsible=1;childLayout=tableLayout;fixedRows=1;rowLines=0;fontStyle=1;align=center;resizeLast=1;" vertex="1" parent="1">
          <mxGeometry x="30" y="290" width="180" height="170" as="geometry" />
        </mxCell>
        <mxCell id="uirbHqGQv4FEbiW8RKk9-15" value="" style="shape=partialRectangle;collapsible=0;dropTarget=0;pointerEvents=0;fillColor=none;top=0;left=0;bottom=1;right=0;points=[[0,0.5],[1,0.5]];portConstraint=eastwest;" vertex="1" parent="uirbHqGQv4FEbiW8RKk9-14">
          <mxGeometry y="30" width="180" height="40" as="geometry" />
        </mxCell>
        <mxCell id="uirbHqGQv4FEbiW8RKk9-16" value="PK" style="shape=partialRectangle;connectable=0;fillColor=none;top=0;left=0;bottom=0;right=0;fontStyle=1;overflow=hidden;" vertex="1" parent="uirbHqGQv4FEbiW8RKk9-15">
          <mxGeometry width="30" height="40" as="geometry" />
        </mxCell>
        <mxCell id="uirbHqGQv4FEbiW8RKk9-17" value="UniqueID" style="shape=partialRectangle;connectable=0;fillColor=none;top=0;left=0;bottom=0;right=0;align=left;spacingLeft=6;fontStyle=5;overflow=hidden;" vertex="1" parent="uirbHqGQv4FEbiW8RKk9-15">
          <mxGeometry x="30" width="150" height="40" as="geometry" />
        </mxCell>
        <mxCell id="uirbHqGQv4FEbiW8RKk9-18" value="" style="shape=partialRectangle;collapsible=0;dropTarget=0;pointerEvents=0;fillColor=none;top=0;left=0;bottom=0;right=0;points=[[0,0.5],[1,0.5]];portConstraint=eastwest;" vertex="1" parent="uirbHqGQv4FEbiW8RKk9-14">
          <mxGeometry y="70" width="180" height="30" as="geometry" />
        </mxCell>
        <mxCell id="uirbHqGQv4FEbiW8RKk9-19" value="" style="shape=partialRectangle;connectable=0;fillColor=none;top=0;left=0;bottom=0;right=0;editable=1;overflow=hidden;" vertex="1" parent="uirbHqGQv4FEbiW8RKk9-18">
          <mxGeometry width="30" height="30" as="geometry" />
        </mxCell>
        <mxCell id="uirbHqGQv4FEbiW8RKk9-20" value="mower" style="shape=partialRectangle;connectable=0;fillColor=none;top=0;left=0;bottom=0;right=0;align=left;spacingLeft=6;overflow=hidden;" vertex="1" parent="uirbHqGQv4FEbiW8RKk9-18">
          <mxGeometry x="30" width="150" height="30" as="geometry" />
        </mxCell>
        <mxCell id="uirbHqGQv4FEbiW8RKk9-21" value="" style="shape=partialRectangle;collapsible=0;dropTarget=0;pointerEvents=0;fillColor=none;top=0;left=0;bottom=0;right=0;points=[[0,0.5],[1,0.5]];portConstraint=eastwest;" vertex="1" parent="uirbHqGQv4FEbiW8RKk9-14">
          <mxGeometry y="100" width="180" height="30" as="geometry" />
        </mxCell>
        <mxCell id="uirbHqGQv4FEbiW8RKk9-22" value="" style="shape=partialRectangle;connectable=0;fillColor=none;top=0;left=0;bottom=0;right=0;editable=1;overflow=hidden;" vertex="1" parent="uirbHqGQv4FEbiW8RKk9-21">
          <mxGeometry width="30" height="30" as="geometry" />
        </mxCell>
        <mxCell id="uirbHqGQv4FEbiW8RKk9-23" value="weed eater" style="shape=partialRectangle;connectable=0;fillColor=none;top=0;left=0;bottom=0;right=0;align=left;spacingLeft=6;overflow=hidden;" vertex="1" parent="uirbHqGQv4FEbiW8RKk9-21">
          <mxGeometry x="30" width="150" height="30" as="geometry" />
        </mxCell>
        <mxCell id="uirbHqGQv4FEbiW8RKk9-24" value="" style="shape=partialRectangle;collapsible=0;dropTarget=0;pointerEvents=0;fillColor=none;top=0;left=0;bottom=0;right=0;points=[[0,0.5],[1,0.5]];portConstraint=eastwest;" vertex="1" parent="uirbHqGQv4FEbiW8RKk9-14">
          <mxGeometry y="130" width="180" height="30" as="geometry" />
        </mxCell>
        <mxCell id="uirbHqGQv4FEbiW8RKk9-25" value="" style="shape=partialRectangle;connectable=0;fillColor=none;top=0;left=0;bottom=0;right=0;editable=1;overflow=hidden;" vertex="1" parent="uirbHqGQv4FEbiW8RKk9-24">
          <mxGeometry width="30" height="30" as="geometry" />
        </mxCell>
        <mxCell id="uirbHqGQv4FEbiW8RKk9-26" value="edger" style="shape=partialRectangle;connectable=0;fillColor=none;top=0;left=0;bottom=0;right=0;align=left;spacingLeft=6;overflow=hidden;" vertex="1" parent="uirbHqGQv4FEbiW8RKk9-24">
          <mxGeometry x="30" width="150" height="30" as="geometry" />
        </mxCell>
        <mxCell id="uirbHqGQv4FEbiW8RKk9-40" style="edgeStyle=orthogonalEdgeStyle;rounded=0;orthogonalLoop=1;jettySize=auto;html=1;exitX=0.5;exitY=0;exitDx=0;exitDy=0;entryX=0.372;entryY=-0.012;entryDx=0;entryDy=0;entryPerimeter=0;" edge="1" parent="1" source="uirbHqGQv4FEbiW8RKk9-27" target="uirbHqGQv4FEbiW8RKk9-27">
          <mxGeometry relative="1" as="geometry" />
        </mxCell>
        <mxCell id="uirbHqGQv4FEbiW8RKk9-41" value="jobs" style="shape=table;startSize=30;container=1;collapsible=1;childLayout=tableLayout;fixedRows=1;rowLines=0;fontStyle=1;align=center;resizeLast=1;" vertex="1" parent="1">
          <mxGeometry x="540" y="280" width="180" height="160" as="geometry" />
        </mxCell>
        <mxCell id="uirbHqGQv4FEbiW8RKk9-42" value="" style="shape=partialRectangle;collapsible=0;dropTarget=0;pointerEvents=0;fillColor=none;top=0;left=0;bottom=1;right=0;points=[[0,0.5],[1,0.5]];portConstraint=eastwest;" vertex="1" parent="uirbHqGQv4FEbiW8RKk9-41">
          <mxGeometry y="30" width="180" height="30" as="geometry" />
        </mxCell>
        <mxCell id="uirbHqGQv4FEbiW8RKk9-43" value="PK" style="shape=partialRectangle;connectable=0;fillColor=none;top=0;left=0;bottom=0;right=0;fontStyle=1;overflow=hidden;" vertex="1" parent="uirbHqGQv4FEbiW8RKk9-42">
          <mxGeometry width="30" height="30" as="geometry" />
        </mxCell>
        <mxCell id="uirbHqGQv4FEbiW8RKk9-44" value="UniqueID" style="shape=partialRectangle;connectable=0;fillColor=none;top=0;left=0;bottom=0;right=0;align=left;spacingLeft=6;fontStyle=5;overflow=hidden;" vertex="1" parent="uirbHqGQv4FEbiW8RKk9-42">
          <mxGeometry x="30" width="150" height="30" as="geometry" />
        </mxCell>
        <mxCell id="uirbHqGQv4FEbiW8RKk9-45" value="" style="shape=partialRectangle;collapsible=0;dropTarget=0;pointerEvents=0;fillColor=none;top=0;left=0;bottom=0;right=0;points=[[0,0.5],[1,0.5]];portConstraint=eastwest;" vertex="1" parent="uirbHqGQv4FEbiW8RKk9-41">
          <mxGeometry y="60" width="180" height="30" as="geometry" />
        </mxCell>
        <mxCell id="uirbHqGQv4FEbiW8RKk9-46" value="" style="shape=partialRectangle;connectable=0;fillColor=none;top=0;left=0;bottom=0;right=0;editable=1;overflow=hidden;" vertex="1" parent="uirbHqGQv4FEbiW8RKk9-45">
          <mxGeometry width="30" height="30" as="geometry" />
        </mxCell>
        <mxCell id="uirbHqGQv4FEbiW8RKk9-47" value="job1" style="shape=partialRectangle;connectable=0;fillColor=none;top=0;left=0;bottom=0;right=0;align=left;spacingLeft=6;overflow=hidden;" vertex="1" parent="uirbHqGQv4FEbiW8RKk9-45">
          <mxGeometry x="30" width="150" height="30" as="geometry" />
        </mxCell>
        <mxCell id="uirbHqGQv4FEbiW8RKk9-48" value="" style="shape=partialRectangle;collapsible=0;dropTarget=0;pointerEvents=0;fillColor=none;top=0;left=0;bottom=0;right=0;points=[[0,0.5],[1,0.5]];portConstraint=eastwest;" vertex="1" parent="uirbHqGQv4FEbiW8RKk9-41">
          <mxGeometry y="90" width="180" height="30" as="geometry" />
        </mxCell>
        <mxCell id="uirbHqGQv4FEbiW8RKk9-49" value="" style="shape=partialRectangle;connectable=0;fillColor=none;top=0;left=0;bottom=0;right=0;editable=1;overflow=hidden;" vertex="1" parent="uirbHqGQv4FEbiW8RKk9-48">
          <mxGeometry width="30" height="30" as="geometry" />
        </mxCell>
        <mxCell id="uirbHqGQv4FEbiW8RKk9-50" value="job2" style="shape=partialRectangle;connectable=0;fillColor=none;top=0;left=0;bottom=0;right=0;align=left;spacingLeft=6;overflow=hidden;" vertex="1" parent="uirbHqGQv4FEbiW8RKk9-48">
          <mxGeometry x="30" width="150" height="30" as="geometry" />
        </mxCell>
        <mxCell id="uirbHqGQv4FEbiW8RKk9-51" value="" style="shape=partialRectangle;collapsible=0;dropTarget=0;pointerEvents=0;fillColor=none;top=0;left=0;bottom=0;right=0;points=[[0,0.5],[1,0.5]];portConstraint=eastwest;" vertex="1" parent="uirbHqGQv4FEbiW8RKk9-41">
          <mxGeometry y="120" width="180" height="30" as="geometry" />
        </mxCell>
        <mxCell id="uirbHqGQv4FEbiW8RKk9-52" value="" style="shape=partialRectangle;connectable=0;fillColor=none;top=0;left=0;bottom=0;right=0;editable=1;overflow=hidden;" vertex="1" parent="uirbHqGQv4FEbiW8RKk9-51">
          <mxGeometry width="30" height="30" as="geometry" />
        </mxCell>
        <mxCell id="uirbHqGQv4FEbiW8RKk9-53" value="job3" style="shape=partialRectangle;connectable=0;fillColor=none;top=0;left=0;bottom=0;right=0;align=left;spacingLeft=6;overflow=hidden;" vertex="1" parent="uirbHqGQv4FEbiW8RKk9-51">
          <mxGeometry x="30" width="150" height="30" as="geometry" />
        </mxCell>
        <mxCell id="uirbHqGQv4FEbiW8RKk9-55" value="" style="edgeStyle=entityRelationEdgeStyle;fontSize=12;html=1;endArrow=ERmany;startArrow=ERmany;entryX=0;entryY=0.5;entryDx=0;entryDy=0;" edge="1" parent="1" source="uirbHqGQv4FEbiW8RKk9-21" target="uirbHqGQv4FEbiW8RKk9-34">
          <mxGeometry width="100" height="100" relative="1" as="geometry">
            <mxPoint x="370" y="460" as="sourcePoint" />
            <mxPoint x="470" y="360" as="targetPoint" />
          </mxGeometry>
        </mxCell>
        <mxCell id="uirbHqGQv4FEbiW8RKk9-27" value="personal" style="shape=table;startSize=30;container=1;collapsible=1;childLayout=tableLayout;fixedRows=1;rowLines=0;fontStyle=1;align=center;resizeLast=1;" vertex="1" parent="1">
          <mxGeometry x="300" y="275" width="180" height="155" as="geometry" />
        </mxCell>
        <mxCell id="uirbHqGQv4FEbiW8RKk9-28" value="" style="shape=partialRectangle;collapsible=0;dropTarget=0;pointerEvents=0;fillColor=none;top=0;left=0;bottom=1;right=0;points=[[0,0.5],[1,0.5]];portConstraint=eastwest;" vertex="1" parent="uirbHqGQv4FEbiW8RKk9-27">
          <mxGeometry y="30" width="180" height="30" as="geometry" />
        </mxCell>
        <mxCell id="uirbHqGQv4FEbiW8RKk9-29" value="PK" style="shape=partialRectangle;connectable=0;fillColor=none;top=0;left=0;bottom=0;right=0;fontStyle=1;overflow=hidden;" vertex="1" parent="uirbHqGQv4FEbiW8RKk9-28">
          <mxGeometry width="30" height="30" as="geometry" />
        </mxCell>
        <mxCell id="uirbHqGQv4FEbiW8RKk9-30" value="UniqueID" style="shape=partialRectangle;connectable=0;fillColor=none;top=0;left=0;bottom=0;right=0;align=left;spacingLeft=6;fontStyle=5;overflow=hidden;" vertex="1" parent="uirbHqGQv4FEbiW8RKk9-28">
          <mxGeometry x="30" width="150" height="30" as="geometry" />
        </mxCell>
        <mxCell id="uirbHqGQv4FEbiW8RKk9-31" value="" style="shape=partialRectangle;collapsible=0;dropTarget=0;pointerEvents=0;fillColor=none;top=0;left=0;bottom=0;right=0;points=[[0,0.5],[1,0.5]];portConstraint=eastwest;" vertex="1" parent="uirbHqGQv4FEbiW8RKk9-27">
          <mxGeometry y="60" width="180" height="30" as="geometry" />
        </mxCell>
        <mxCell id="uirbHqGQv4FEbiW8RKk9-32" value="" style="shape=partialRectangle;connectable=0;fillColor=none;top=0;left=0;bottom=0;right=0;editable=1;overflow=hidden;" vertex="1" parent="uirbHqGQv4FEbiW8RKk9-31">
          <mxGeometry width="30" height="30" as="geometry" />
        </mxCell>
        <mxCell id="uirbHqGQv4FEbiW8RKk9-33" value="mike" style="shape=partialRectangle;connectable=0;fillColor=none;top=0;left=0;bottom=0;right=0;align=left;spacingLeft=6;overflow=hidden;" vertex="1" parent="uirbHqGQv4FEbiW8RKk9-31">
          <mxGeometry x="30" width="150" height="30" as="geometry" />
        </mxCell>
        <mxCell id="uirbHqGQv4FEbiW8RKk9-34" value="" style="shape=partialRectangle;collapsible=0;dropTarget=0;pointerEvents=0;fillColor=none;top=0;left=0;bottom=0;right=0;points=[[0,0.5],[1,0.5]];portConstraint=eastwest;" vertex="1" parent="uirbHqGQv4FEbiW8RKk9-27">
          <mxGeometry y="90" width="180" height="25" as="geometry" />
        </mxCell>
        <mxCell id="uirbHqGQv4FEbiW8RKk9-35" value="" style="shape=partialRectangle;connectable=0;fillColor=none;top=0;left=0;bottom=0;right=0;editable=1;overflow=hidden;" vertex="1" parent="uirbHqGQv4FEbiW8RKk9-34">
          <mxGeometry width="30" height="25" as="geometry" />
        </mxCell>
        <mxCell id="uirbHqGQv4FEbiW8RKk9-36" value="josh" style="shape=partialRectangle;connectable=0;fillColor=none;top=0;left=0;bottom=0;right=0;align=left;spacingLeft=6;overflow=hidden;" vertex="1" parent="uirbHqGQv4FEbiW8RKk9-34">
          <mxGeometry x="30" width="150" height="25" as="geometry" />
        </mxCell>
        <mxCell id="uirbHqGQv4FEbiW8RKk9-37" value="" style="shape=partialRectangle;collapsible=0;dropTarget=0;pointerEvents=0;fillColor=none;top=0;left=0;bottom=0;right=0;points=[[0,0.5],[1,0.5]];portConstraint=eastwest;" vertex="1" parent="uirbHqGQv4FEbiW8RKk9-27">
          <mxGeometry y="115" width="180" height="30" as="geometry" />
        </mxCell>
        <mxCell id="uirbHqGQv4FEbiW8RKk9-38" value="" style="shape=partialRectangle;connectable=0;fillColor=none;top=0;left=0;bottom=0;right=0;editable=1;overflow=hidden;" vertex="1" parent="uirbHqGQv4FEbiW8RKk9-37">
          <mxGeometry width="30" height="30" as="geometry" />
        </mxCell>
        <mxCell id="uirbHqGQv4FEbiW8RKk9-39" value="philip" style="shape=partialRectangle;connectable=0;fillColor=none;top=0;left=0;bottom=0;right=0;align=left;spacingLeft=6;overflow=hidden;" vertex="1" parent="uirbHqGQv4FEbiW8RKk9-37">
          <mxGeometry x="30" width="150" height="30" as="geometry" />
        </mxCell>
        <mxCell id="uirbHqGQv4FEbiW8RKk9-60" value="" style="edgeStyle=entityRelationEdgeStyle;fontSize=12;html=1;endArrow=ERoneToMany;exitX=0.478;exitY=1.333;exitDx=0;exitDy=0;exitPerimeter=0;entryX=0.9;entryY=-0.006;entryDx=0;entryDy=0;entryPerimeter=0;" edge="1" parent="1" source="uirbHqGQv4FEbiW8RKk9-11" target="uirbHqGQv4FEbiW8RKk9-27">
          <mxGeometry width="100" height="100" relative="1" as="geometry">
            <mxPoint x="380" y="440" as="sourcePoint" />
            <mxPoint x="396" y="280" as="targetPoint" />
          </mxGeometry>
        </mxCell>
        <mxCell id="uirbHqGQv4FEbiW8RKk9-61" value="" style="edgeStyle=entityRelationEdgeStyle;fontSize=12;html=1;endArrow=ERzeroToMany;startArrow=ERmandOne;entryX=1;entryY=0.5;entryDx=0;entryDy=0;exitX=0;exitY=0.106;exitDx=0;exitDy=0;exitPerimeter=0;" edge="1" parent="1" source="uirbHqGQv4FEbiW8RKk9-41" target="uirbHqGQv4FEbiW8RKk9-28">
          <mxGeometry width="100" height="100" relative="1" as="geometry">
            <mxPoint x="570" y="250" as="sourcePoint" />
            <mxPoint x="480" y="340" as="targetPoint" />
          </mxGeometry>
        </mxCell>
        <mxCell id="uirbHqGQv4FEbiW8RKk9-62" value="fuel consumption" style="whiteSpace=wrap;html=1;align=center;" vertex="1" parent="1">
          <mxGeometry x="10" y="530" width="100" height="40" as="geometry" />
        </mxCell>
        <mxCell id="uirbHqGQv4FEbiW8RKk9-63" value="" style="edgeStyle=entityRelationEdgeStyle;fontSize=12;html=1;endArrow=ERoneToMany;exitX=0.5;exitY=0;exitDx=0;exitDy=0;" edge="1" parent="1" source="uirbHqGQv4FEbiW8RKk9-62">
          <mxGeometry width="100" height="100" relative="1" as="geometry">
            <mxPoint x="380" y="440" as="sourcePoint" />
            <mxPoint x="30" y="410" as="targetPoint" />
          </mxGeometry>
        </mxCell>
      </root>
    </mxGraphModel>
  </diagram>
</mxfile>
